<?xml version="1.0" encoding="UTF-8" standalone="no"?>
<!-- Created with Inkscape (http://www.inkscape.org/) -->

<svg
   width="128"
   height="128"
   viewBox="0 0 33.866666 33.866666"
   version="1.1"
   id="svg1"
   sodipodi:docname="icnscvt.svg"
   inkscape:version="1.4.2 (ebf0e940d0, 2025-05-08)"
   xmlns:inkscape="http://www.inkscape.org/namespaces/inkscape"
   xmlns:sodipodi="http://sodipodi.sourceforge.net/DTD/sodipodi-0.dtd"
   xmlns:xlink="http://www.w3.org/1999/xlink"
   xmlns="http://www.w3.org/2000/svg"
   xmlns:svg="http://www.w3.org/2000/svg"
   xmlns:rdf="http://www.w3.org/1999/02/22-rdf-syntax-ns#"
   xmlns:cc="http://creativecommons.org/ns#"
   xmlns:dc="http://purl.org/dc/elements/1.1/">
  <title
     id="title74">icnscvt Logo</title>
  <sodipodi:namedview
     id="namedview1"
     pagecolor="#505050"
     bordercolor="#eeeeee"
     borderopacity="1"
     inkscape:showpageshadow="0"
     inkscape:pageopacity="0"
     inkscape:pagecheckerboard="0"
     inkscape:deskcolor="#505050"
     inkscape:document-units="px"
     showgrid="true"
     inkscape:zoom="4"
     inkscape:cx="23.875"
     inkscape:cy="60.375"
     inkscape:window-width="1920"
     inkscape:window-height="1020"
     inkscape:window-x="0"
     inkscape:window-y="0"
     inkscape:window-maximized="1"
     inkscape:current-layer="layer2">
    <inkscape:grid
       id="grid1"
       units="px"
       originx="0"
       originy="0"
       spacingx="2.1166666"
       spacingy="2.1166666"
       empcolor="#0099e5"
       empopacity="0.30196078"
       color="#0099e5"
       opacity="0.14901961"
       empspacing="5"
       enabled="true"
       visible="true" />
  </sodipodi:namedview>
  <defs
     id="defs1">
    <inkscape:path-effect
       effect="fillet_chamfer"
       id="path-effect11"
       is_visible="true"
       lpeversion="1"
       nodesatellites_param="F,0,0,1,0,0.52916666,0,1 @ F,0,0,1,0,0.52916666,0,1 @ F,0,0,1,0,0.52916666,0,1 @ F,0,0,1,0,0.52916666,0,1 @ F,0,0,1,0,0.52916666,0,1 @ F,0,0,1,0,0.52916666,0,1 @ F,0,0,1,0,0.52916666,0,1 @ F,0,0,1,0,0.52916666,0,1"
       radius="2"
       unit="px"
       method="auto"
       mode="F"
       chamfer_steps="1"
       flexible="false"
       use_knot_distance="true"
       apply_no_radius="true"
       apply_with_radius="true"
       only_selected="false"
       hide_knots="false" />
    <inkscape:path-effect
       effect="fillet_chamfer"
       id="path-effect10"
       is_visible="true"
       lpeversion="1"
       nodesatellites_param="F,0,0,1,0,0.52916666,0,1 @ F,0,0,1,0,0.52916666,0,1 @ F,0,0,1,0,0.52916666,0,1 @ F,0,0,1,0,0.52916666,0,1 @ F,0,0,1,0,0.52916666,0,1 @ F,0,0,1,0,0.52916666,0,1 @ F,0,0,1,0,0.52916666,0,1 @ F,0,0,1,0,0.52916666,0,1"
       radius="2"
       unit="px"
       method="auto"
       mode="F"
       chamfer_steps="1"
       flexible="false"
       use_knot_distance="true"
       apply_no_radius="true"
       apply_with_radius="true"
       only_selected="false"
       hide_knots="false" />
    <inkscape:path-effect
       effect="fillet_chamfer"
       id="path-effect9"
       is_visible="true"
       lpeversion="1"
       nodesatellites_param="F,0,0,1,0,0.52916666,0,1 @ F,0,0,1,0,0.52916666,0,1 @ F,0,0,1,0,0.52916666,0,1 @ F,0,0,1,0,0.52916666,0,1"
       radius="2"
       unit="px"
       method="auto"
       mode="F"
       chamfer_steps="1"
       flexible="false"
       use_knot_distance="true"
       apply_no_radius="true"
       apply_with_radius="true"
       only_selected="false"
       hide_knots="false" />
    <inkscape:path-effect
       effect="fillet_chamfer"
       id="path-effect8"
       is_visible="true"
       lpeversion="1"
       nodesatellites_param="F,0,0,1,0,0.52916666,0,1 @ F,0,0,1,0,0.52916666,0,1 @ F,0,0,1,0,0.52916666,0,1 @ F,0,0,1,0,0.52916666,0,1 @ F,0,0,1,0,0.52916666,0,1 @ F,0,0,1,0,0.52916666,0,1 @ F,0,0,1,0,0.52916666,0,1 @ F,0,0,1,0,0.52916666,0,1"
       radius="2"
       unit="px"
       method="auto"
       mode="F"
       chamfer_steps="1"
       flexible="false"
       use_knot_distance="true"
       apply_no_radius="true"
       apply_with_radius="true"
       only_selected="false"
       hide_knots="false" />
    <inkscape:path-effect
       effect="fillet_chamfer"
       id="path-effect7"
       is_visible="true"
       lpeversion="1"
       nodesatellites_param="F,0,0,1,0,0.52916666,0,1 @ F,0,0,1,0,0.52916666,0,1 @ F,0,0,1,0,0.52916666,0,1 @ F,0,0,1,0,0.52916666,0,1 @ F,0,0,1,0,0.52916666,0,1 @ F,0,0,1,0,0.52916666,0,1 @ F,0,0,1,0,0.52916666,0,1 @ F,0,0,1,0,0.52916666,0,1 @ F,0,0,1,0,0.52916666,0,1 @ F,0,0,1,0,0.52916666,0,1 @ F,0,0,1,0,0.52916666,0,1 @ F,0,0,1,0,0.52916666,0,1"
       radius="2"
       unit="px"
       method="auto"
       mode="F"
       chamfer_steps="1"
       flexible="false"
       use_knot_distance="true"
       apply_no_radius="true"
       apply_with_radius="true"
       only_selected="false"
       hide_knots="false" />
    <inkscape:path-effect
       effect="fillet_chamfer"
       id="path-effect6"
       is_visible="true"
       lpeversion="1"
       nodesatellites_param="F,0,0,1,0,0.52916666,0,1 @ F,0,0,1,0,0.52916666,0,1 @ F,0,0,1,0,0.52916666,0,1 @ F,0,0,1,0,0.52916666,0,1 @ F,0,0,1,0,0.52916666,0,1 @ F,0,0,1,0,0.52916666,0,1"
       radius="2"
       unit="px"
       method="auto"
       mode="F"
       chamfer_steps="1"
       flexible="false"
       use_knot_distance="true"
       apply_no_radius="true"
       apply_with_radius="true"
       only_selected="false"
       hide_knots="false" />
    <inkscape:path-effect
       effect="fillet_chamfer"
       id="path-effect5"
       is_visible="true"
       lpeversion="1"
       nodesatellites_param="F,0,0,1,0,0.52916666,0,1 @ F,0,0,1,0,0.52916666,0,1 @ F,0,0,1,0,0.52916666,0,1 @ F,0,0,1,0,0.52916666,0,1"
       radius="2"
       unit="px"
       method="auto"
       mode="F"
       chamfer_steps="1"
       flexible="false"
       use_knot_distance="true"
       apply_no_radius="true"
       apply_with_radius="true"
       only_selected="false"
       hide_knots="false" />
    <inkscape:path-effect
       effect="fillet_chamfer"
       id="path-effect4"
       is_visible="true"
       lpeversion="1"
       nodesatellites_param="F,0,0,1,0,0.26458333,0,1 @ F,0,0,1,0,0.26458333,0,1 @ F,0,0,1,0,0.26458333,0,1 @ F,0,0,1,0,0.26458333,0,1 @ F,0,0,1,0,0.26458333,0,1 @ F,0,0,1,0,0.26458333,0,1 @ F,0,0,1,0,0.26458333,0,1 @ F,0,0,1,0,0.26458333,0,1 @ F,0,0,1,0,0.26458333,0,1 @ F,0,0,1,0,0.26458333,0,1"
       radius="1"
       unit="px"
       method="auto"
       mode="F"
       chamfer_steps="1"
       flexible="false"
       use_knot_distance="true"
       apply_no_radius="true"
       apply_with_radius="true"
       only_selected="false"
       hide_knots="false" />
    <inkscape:path-effect
       effect="fillet_chamfer"
       id="path-effect3"
       is_visible="true"
       lpeversion="1"
       nodesatellites_param="F,0,0,1,0,0.52916666,0,1 @ F,0,0,1,0,0.52916666,0,1 @ F,0,0,1,0,0.52916666,0,1 @ F,0,0,1,0,0.52916666,0,1 @ F,0,0,1,0,0.52916666,0,1 @ F,0,0,1,0,0.52916666,0,1 @ F,0,0,1,0,0.52916666,0,1 @ F,0,0,1,0,0.52916666,0,1"
       radius="2"
       unit="px"
       method="auto"
       mode="F"
       chamfer_steps="1"
       flexible="false"
       use_knot_distance="true"
       apply_no_radius="true"
       apply_with_radius="true"
       only_selected="false"
       hide_knots="false" />
    <inkscape:path-effect
       effect="fillet_chamfer"
       id="path-effect2"
       is_visible="true"
       lpeversion="1"
       nodesatellites_param="F,0,0,1,0,0.52916666,0,1 @ F,0,0,1,0,0.52916666,0,1 @ F,0,0,1,0,0.52916666,0,1 @ F,0,0,1,0,0.52916666,0,1 @ F,0,0,1,0,0.52916666,0,1 @ F,0,0,1,0,0.52916666,0,1 @ F,0,0,1,0,0.52916666,0,1 @ F,0,0,1,0,0.52916666,0,1 @ F,0,0,1,0,0.52916666,0,1 @ F,0,0,1,0,0.52916666,0,1 @ F,0,0,1,0,0.52916666,0,1 @ F,0,0,1,0,0.52916666,0,1"
       radius="2"
       unit="px"
       method="auto"
       mode="F"
       chamfer_steps="1"
       flexible="false"
       use_knot_distance="true"
       apply_no_radius="true"
       apply_with_radius="true"
       only_selected="false"
       hide_knots="false" />
    <inkscape:path-effect
       effect="fillet_chamfer"
       id="path-effect74"
       is_visible="true"
       lpeversion="1"
       nodesatellites_param="F,0,0,1,0,0.066145833,0,1 @ F,0,0,1,0,0.066145833,0,1 @ F,0,0,1,0,0.066145833,0,1 @ F,0,0,1,0,0.066145833,0,1 @ F,0,0,1,0,0.066145833,0,1 @ F,0,0,1,0,0.066145833,0,1 @ F,0,0,1,0,0.066145833,0,1 @ F,0,0,1,0,0.066145833,0,1 @ F,0,0,1,0,0.066145833,0,1 @ F,0,0,1,0,0.066145833,0,1 @ F,0,0,1,0,0.066145833,0,1 @ F,0,0,1,0,0.066145833,0,1 @ F,0,0,1,0,0.066145833,0,1 @ F,0,0,1,0,0.066145833,0,1 @ F,0,0,1,0,0.066145833,0,1 @ F,0,0,1,0,0.066145833,0,1 @ F,0,0,1,0,0.066145833,0,1 @ F,0,0,1,0,0.066145833,0,1 @ F,0,0,1,0,0.066145833,0,1 @ F,0,0,1,0,0.066145833,0,1 @ F,0,0,1,0,0.066145833,0,1 @ F,0,0,1,0,0.066145833,0,1 @ F,0,0,1,0,0.066145833,0,1 @ F,0,0,1,0,0.066145833,0,1 @ F,0,0,1,0,0.066145833,0,1 @ F,0,0,1,0,0.066145833,0,1 @ F,0,0,1,0,0.066145833,0,1 @ F,0,0,1,0,0.066145833,0,1"
       radius="2"
       unit="px"
       method="auto"
       mode="F"
       chamfer_steps="1"
       flexible="false"
       use_knot_distance="true"
       apply_no_radius="true"
       apply_with_radius="true"
       only_selected="false"
       hide_knots="false" />
    <linearGradient
       id="linearGradient73"
       inkscape:collect="always">
      <stop
         style="stop-color:#cccccc;stop-opacity:1"
         offset="0"
         id="stop73" />
      <stop
         style="stop-color:#f9f9f9;stop-opacity:1"
         offset="1"
         id="stop74" />
    </linearGradient>
    <linearGradient
       id="linearGradient71"
       inkscape:collect="always">
      <stop
         style="stop-color:#aaeeff;stop-opacity:1"
         offset="0"
         id="stop71" />
      <stop
         style="stop-color:#80e5ff;stop-opacity:1"
         offset="1"
         id="stop72" />
    </linearGradient>
    <linearGradient
       id="linearGradient66"
       inkscape:collect="always">
      <stop
         style="stop-color:#e9afc6;stop-opacity:1"
         offset="0"
         id="stop66" />
      <stop
         style="stop-color:#d35f8d;stop-opacity:1"
         offset="1"
         id="stop67" />
    </linearGradient>
    <linearGradient
       id="linearGradient62"
       inkscape:collect="always">
      <stop
         style="stop-color:#ffffff;stop-opacity:1;"
         offset="0"
         id="stop62" />
      <stop
         style="stop-color:#cccccc;stop-opacity:1"
         offset="1"
         id="stop63" />
    </linearGradient>
    <linearGradient
       id="linearGradient60"
       inkscape:collect="always">
      <stop
         style="stop-color:#ff8080;stop-opacity:1"
         offset="0"
         id="stop60" />
      <stop
         style="stop-color:#ff5555;stop-opacity:1"
         offset="1"
         id="stop61" />
    </linearGradient>
    <linearGradient
       id="linearGradient55"
       inkscape:collect="always">
      <stop
         style="stop-color:#ff9955;stop-opacity:1"
         offset="0"
         id="stop55" />
      <stop
         style="stop-color:#ff7f2a;stop-opacity:1"
         offset="1"
         id="stop56" />
    </linearGradient>
    <linearGradient
       id="linearGradient53"
       inkscape:collect="always">
      <stop
         style="stop-color:#ffd42a;stop-opacity:1"
         offset="0"
         id="stop53" />
      <stop
         style="stop-color:#ffcc00;stop-opacity:1"
         offset="1"
         id="stop54" />
    </linearGradient>
    <linearGradient
       id="linearGradient48"
       inkscape:collect="always">
      <stop
         style="stop-color:#b3ff80;stop-opacity:1"
         offset="0"
         id="stop48" />
      <stop
         style="stop-color:#7fff2a;stop-opacity:1"
         offset="1"
         id="stop49" />
    </linearGradient>
    <linearGradient
       inkscape:collect="always"
       xlink:href="#linearGradient48"
       id="linearGradient49"
       x1="0.66145831"
       y1="0.26458332"
       x2="0.66145831"
       y2="1.5875"
       gradientUnits="userSpaceOnUse"
       gradientTransform="scale(7.9999999)" />
    <linearGradient
       inkscape:collect="always"
       xlink:href="#linearGradient53"
       id="linearGradient54"
       x1="1.4499372"
       y1="0.26458332"
       x2="1.4499372"
       y2="1.5875"
       gradientUnits="userSpaceOnUse"
       gradientTransform="matrix(7.9996353,0,0,7.9999999,3.8581961e-4,1.8206315e-4)" />
    <linearGradient
       inkscape:collect="always"
       xlink:href="#linearGradient55"
       id="linearGradient56"
       x1="2.4884787"
       y1="0.26458332"
       x2="2.4884787"
       y2="1.5875"
       gradientUnits="userSpaceOnUse"
       gradientTransform="matrix(8.0005663,0,0,7.9998621,-0.00166356,2.1852201e-4)" />
    <linearGradient
       inkscape:collect="always"
       xlink:href="#linearGradient60"
       id="linearGradient61"
       x1="3.5801432"
       y1="0.26458332"
       x2="3.5801432"
       y2="1.5875001"
       gradientUnits="userSpaceOnUse"
       gradientTransform="matrix(7.9995966,0,0,7.9998614,0.00128044,2.1870199e-4)" />
    <linearGradient
       inkscape:collect="always"
       xlink:href="#linearGradient62"
       id="linearGradient63"
       x1="1.1823567"
       y1="1.8520833"
       x2="1.1823567"
       y2="2.9104166"
       gradientUnits="userSpaceOnUse"
       gradientTransform="matrix(7.9996099,0,0,8.0005005,6.1880337e-4,-7.4455561e-4)" />
    <linearGradient
       inkscape:collect="always"
       xlink:href="#linearGradient66"
       id="linearGradient65"
       x1="2.2282877"
       y1="1.8520833"
       x2="2.2282877"
       y2="2.9104166"
       gradientUnits="userSpaceOnUse"
       gradientTransform="matrix(7.9995989,0,0,7.9997537,0.00106002,7.762261e-4)" />
    <linearGradient
       inkscape:collect="always"
       xlink:href="#linearGradient71"
       id="linearGradient72"
       x1="3.3072917"
       y1="1.8520833"
       x2="3.3072917"
       y2="2.9104166"
       gradientUnits="userSpaceOnUse"
       gradientTransform="matrix(7.9999997,0,0,7.9996971,4.5833335e-7,8.8121663e-4)" />
    <linearGradient
       inkscape:collect="always"
       xlink:href="#linearGradient73"
       id="linearGradient74"
       x1="0.5291667"
       y1="3.8364582"
       x2="3.7041664"
       y2="3.8364582"
       gradientUnits="userSpaceOnUse"
       gradientTransform="scale(7.9999999)" />
  </defs>
  <g
     inkscape:label="Line"
     inkscape:groupmode="layer"
     id="layer1">
    <path
       style="fill:#1a1a1a;fill-opacity:1;stroke-width:0.264583;-inkscape-stroke:none"
       d="M 0.52916666,27.516666 H 29.104166 a 0.52916666,0.52916666 45 0 1 0.529167,0.529167 v 1.058333 a 0.52916666,0.52916666 45 0 0 0.529167,0.529167 h 1.058333 A 0.52916666,0.52916666 45 0 1 31.75,30.1625 v 1.058333 A 0.52916666,0.52916666 45 0 0 32.279167,31.75 l 1.058332,0 a 0.52916666,0.52916666 45 0 1 0.529167,0.529167 v 1.058332 a 0.52916666,0.52916666 135 0 1 -0.529167,0.529167 H 4.7624997 A 0.52916666,0.52916666 45 0 1 4.233333,33.337499 V 32.279167 A 0.52916666,0.52916666 45 0 0 3.7041663,31.75 H 2.6458333 A 0.52916666,0.52916666 45 0 1 2.1166666,31.220833 V 30.1625 A 0.52916666,0.52916666 45 0 0 1.5874999,29.633333 H 0.52916666 A 0.52916666,0.52916666 45 0 1 0,29.104166 v -1.058333 a 0.52916666,0.52916666 135 0 1 0.52916666,-0.529167 z"
       id="path2"
       inkscape:path-effect="#path-effect2"
       inkscape:original-d="m 0,27.516666 h 29.633333 v 2.116667 H 31.75 V 31.75 h 2.116666 v 2.116666 H 4.233333 V 31.75 H 2.1166666 V 29.633333 H 0 Z"
       inkscape:label="Line (dark)" />
    <rect
       style="fill:url(#linearGradient74);fill-opacity:1;stroke-width:2.11666;-inkscape-stroke:none"
       id="rect2"
       width="25.399998"
       height="2.1166666"
       x="4.2333336"
       y="29.633333"
       rx="0.52916664"
       ry="0.52916664"
       inkscape:label="Line (light)" />
  </g>
  <g
     inkscape:groupmode="layer"
     id="layer3"
     inkscape:label="Shade"
     style="fill:#1a1a1a">
    <path
       id="rect40"
       style="fill:#1a1a1a;stroke-width:0.264583;-inkscape-stroke:none"
       d="M 0.52916667,0.06614583 V 0.1984375 a 0.06614583,0.06614583 135 0 1 -0.0661458,0.0661458 H 0.33072916 a 0.06614583,0.06614583 135 0 0 -0.0661458,0.0661458 V 1.5213542 A 0.06614583,0.06614583 45 0 0 0.33072916,1.5875 l 0.13229168,0 a 0.06614583,0.06614583 45 0 1 0.0661458,0.066146 v 1.1906251 a 0.06614583,0.06614583 45 0 0 0.0661458,0.066146 H 0.72760417 A 0.06614583,0.06614583 45 0 1 0.79375,2.9765625 V 3.1088542 A 0.06614583,0.06614583 45 0 0 0.85989583,3.175 H 2.0505209 a 0.06614583,0.06614583 135 0 0 0.066146,-0.066146 V 2.9765625 a 0.06614583,0.06614583 135 0 1 0.066146,-0.066146 H 2.3151042 A 0.06614583,0.06614583 135 0 0 2.38125,2.8442709 l 0,-0.1322918 a 0.06614583,0.06614583 135 0 1 0.066146,-0.066146 h 0.1322917 a 0.06614583,0.06614583 135 0 0 0.066146,-0.066146 V 2.4473958 A 0.06614583,0.06614583 135 0 1 2.7119791,2.38125 l 0.1322918,0 a 0.06614583,0.06614583 45 0 1 0.066146,0.066146 V 3.1088542 A 0.06614583,0.06614583 45 0 0 2.9765625,3.175 h 0.6614584 a 0.06614583,0.06614583 135 0 0 0.066146,-0.066146 l 0,-0.9260417 a 0.06614583,0.06614583 135 0 1 0.066146,-0.066146 H 3.9026042 A 0.06614583,0.06614583 135 0 0 3.96875,2.0505209 l 0,-0.3968751 A 0.06614583,0.06614583 135 0 1 4.0348958,1.5875 h 0.1322917 a 0.06614583,0.06614583 135 0 0 0.066146,-0.066146 V 0.33072916 A 0.06614583,0.06614583 45 0 0 4.1671875,0.26458333 H 4.0348958 A 0.06614583,0.06614583 45 0 1 3.96875,0.1984375 V 0.06614583 A 0.06614583,0.06614583 45 0 0 3.9026042,0 H 3.2411458 A 0.06614583,0.06614583 135 0 0 3.175,0.06614583 V 0.1984375 a 0.06614583,0.06614583 135 0 1 -0.066146,0.0661458 H 2.9765625 A 0.06614583,0.06614583 45 0 1 2.9104167,0.1984375 V 0.06614583 A 0.06614583,0.06614583 45 0 0 2.8442709,0 H 0.5953125 a 0.06614583,0.06614583 135 0 0 -0.0661458,0.06614583 z"
       inkscape:label="Shade"
       inkscape:path-effect="#path-effect74"
       inkscape:original-d="M 0.52916667,0 V 0.26458333 H 0.26458333 V 1.5875 H 0.52916667 V 2.9104167 H 0.79375 V 3.175 H 2.1166667 V 2.9104167 H 2.38125 V 2.6458333 H 2.6458333 V 2.38125 H 2.9104167 V 3.175 h 0.79375 V 2.1166667 H 3.96875 V 1.5875 H 4.2333333 V 0.26458333 H 3.96875 V 0 H 3.175 V 0.26458333 H 2.9104167 V 0 Z"
       transform="scale(7.9999999)" />
  </g>
  <g
     inkscape:groupmode="layer"
     id="layer2"
     inkscape:label="ICNSCVT">
    <path
       style="font-variation-settings:normal;display:inline;opacity:1;vector-effect:none;fill:url(#linearGradient72);fill-opacity:1;stroke-width:2.11662;stroke-linecap:butt;stroke-linejoin:miter;stroke-miterlimit:4;stroke-dasharray:none;stroke-dashoffset:0;stroke-opacity:1;-inkscape-stroke:none;stop-color:#000000;stop-opacity:1"
       d="m 23.812499,14.816666 h 5.291667 a 0.52916666,0.52916666 45 0 1 0.529167,0.529167 v 1.058333 a 0.52916666,0.52916666 135 0 1 -0.529167,0.529167 H 28.045833 A 0.52916666,0.52916666 135 0 0 27.516666,17.4625 v 5.291665 a 0.52916666,0.52916666 135 0 1 -0.529167,0.529167 H 25.929166 A 0.52916666,0.52916666 45 0 1 25.399999,22.754165 V 17.4625 a 0.52916666,0.52916666 45 0 0 -0.529167,-0.529167 h -1.058333 a 0.52916666,0.52916666 45 0 1 -0.529167,-0.529167 v -1.058333 a 0.52916666,0.52916666 135 0 1 0.529167,-0.529167 z"
       id="path10"
       inkscape:label="T"
       inkscape:path-effect="#path-effect11"
       inkscape:original-d="m 23.283332,14.816666 h 6.350001 v 2.116667 h -2.116667 v 6.349999 h -2.116667 v -6.349999 h -2.116667 z" />
    <path
       style="font-variation-settings:normal;opacity:1;vector-effect:none;fill:url(#linearGradient65);fill-opacity:1;stroke-width:2.99329;stroke-linecap:butt;stroke-linejoin:miter;stroke-miterlimit:4;stroke-dasharray:none;stroke-dashoffset:0;stroke-opacity:1;-inkscape-stroke:none;stop-color:#000000;stop-opacity:1"
       d="m 16.404166,14.816666 h -1.058333 a 0.52916666,0.52916666 135 0 0 -0.529167,0.529167 v 7.408332 a 0.52916666,0.52916666 45 0 0 0.529167,0.529167 h 1.058333 a 0.52916666,0.52916666 135 0 0 0.529167,-0.529167 V 21.695833 A 0.52916666,0.52916666 135 0 1 17.4625,21.166666 h 1.058332 a 0.52916666,0.52916666 135 0 0 0.529167,-0.529167 V 19.579166 A 0.52916666,0.52916666 45 0 0 18.520832,19.049999 H 17.4625 a 0.52916666,0.52916666 45 0 1 -0.529167,-0.529167 v -3.174999 a 0.52916666,0.52916666 45 0 0 -0.529167,-0.529167 z"
       id="path8"
       inkscape:label="V (left side)"
       inkscape:path-effect="#path-effect10"
       inkscape:original-d="m 16.933333,14.816666 h -2.116667 v 8.466666 h 2.116667 v -2.116666 h 2.116666 v -2.116667 h -2.116666 z" />
    <path
       style="font-variation-settings:normal;opacity:1;vector-effect:none;fill:url(#linearGradient65);fill-opacity:1;stroke-width:2.99329;stroke-linecap:butt;stroke-linejoin:miter;stroke-miterlimit:4;stroke-dasharray:none;stroke-dashoffset:0;stroke-opacity:1;-inkscape-stroke:none;stop-color:#000000;stop-opacity:1"
       d="m 19.049999,15.345833 v 3.174999 a 0.52916666,0.52916666 45 0 0 0.529167,0.529167 h 1.058333 a 0.52916666,0.52916666 135 0 0 0.529167,-0.529167 v -3.174999 a 0.52916666,0.52916666 45 0 0 -0.529167,-0.529167 h -1.058333 a 0.52916666,0.52916666 135 0 0 -0.529167,0.529167 z"
       id="path9"
       inkscape:label="V (right side)"
       inkscape:path-effect="#path-effect9"
       inkscape:original-d="m 19.049999,14.816666 v 4.233333 h 2.116667 v -4.233333 z" />
    <path
       style="font-variation-settings:normal;opacity:1;vector-effect:none;fill:url(#linearGradient63);fill-opacity:1;stroke-width:2.11668;stroke-linecap:butt;stroke-linejoin:miter;stroke-miterlimit:4;stroke-dasharray:none;stroke-dashoffset:0;stroke-opacity:1;-inkscape-stroke:none;stop-color:#000000;stop-opacity:1"
       d="m 12.170832,14.816666 -5.2916656,0 a 0.52916666,0.52916666 135 0 0 -0.5291667,0.529167 v 7.408332 a 0.52916666,0.52916666 45 0 0 0.5291667,0.529167 l 5.2916656,0 a 0.52916666,0.52916666 135 0 0 0.529167,-0.529167 l 0,-1.058332 a 0.52916666,0.52916666 45 0 0 -0.529167,-0.529167 l -3.174999,0 A 0.52916666,0.52916666 45 0 1 8.4666663,20.637499 V 17.4625 A 0.52916666,0.52916666 135 0 1 8.995833,16.933333 h 3.174999 a 0.52916666,0.52916666 135 0 0 0.529167,-0.529167 v -1.058333 a 0.52916666,0.52916666 45 0 0 -0.529167,-0.529167 z"
       id="path7"
       inkscape:label="C (lower)"
       inkscape:path-effect="#path-effect8"
       inkscape:original-d="M 12.699999,14.816666 H 6.3499997 v 8.466666 H 12.699999 V 21.166666 H 8.4666663 v -4.233333 h 4.2333327 z" />
    <path
       style="font-variation-settings:normal;opacity:1;vector-effect:none;fill:url(#linearGradient61);fill-opacity:1;stroke-width:2.11659;stroke-linecap:butt;stroke-linejoin:miter;stroke-miterlimit:4;stroke-dasharray:none;stroke-dashoffset:0;stroke-opacity:1;-inkscape-stroke:none;stop-color:#000000;stop-opacity:1"
       d="m 31.220833,2.1166666 h -5.291667 a 0.52916666,0.52916666 135 0 0 -0.529167,0.5291667 v 5.2916663 a 0.52916666,0.52916666 45 0 0 0.529167,0.5291667 h 3.175 a 0.52916666,0.52916666 45 0 1 0.529167,0.5291667 l 0,1.058333 a 0.52916666,0.52916666 135 0 1 -0.529167,0.529167 h -3.175 A 0.52916666,0.52916666 135 0 0 25.399999,11.1125 v 1.058332 a 0.52916666,0.52916666 45 0 0 0.529167,0.529167 h 5.291667 A 0.52916666,0.52916666 135 0 0 31.75,12.170832 l 0,-5.2916656 A 0.52916666,0.52916666 45 0 0 31.220833,6.3499997 h -3.175 A 0.52916666,0.52916666 45 0 1 27.516666,5.820833 l 0,-1.0583333 A 0.52916666,0.52916666 135 0 1 28.045833,4.233333 h 3.175 A 0.52916666,0.52916666 135 0 0 31.75,3.7041663 V 2.6458333 A 0.52916666,0.52916666 45 0 0 31.220833,2.1166666 Z"
       id="path6"
       inkscape:path-effect="#path-effect7"
       inkscape:original-d="m 31.75,2.1166666 h -6.350001 v 6.3499997 h 4.233334 v 2.1166667 h -4.233334 v 2.116666 H 31.75 V 6.3499997 H 27.516666 V 4.233333 H 31.75 Z"
       inkscape:label="S" />
    <path
       style="font-variation-settings:normal;opacity:1;vector-effect:none;fill:url(#linearGradient56);fill-opacity:1;stroke-width:2.11671;stroke-linecap:butt;stroke-linejoin:miter;stroke-miterlimit:4;stroke-dasharray:none;stroke-dashoffset:0;stroke-opacity:1;-inkscape-stroke:none;stop-color:#000000;stop-opacity:1"
       d="m 21.166666,4.7624997 v 7.4083323 a 0.52916666,0.52916666 45 0 0 0.529167,0.529167 h 1.058332 a 0.52916666,0.52916666 135 0 0 0.529167,-0.529167 V 4.7624997 A 0.52916666,0.52916666 45 0 0 22.754165,4.233333 h -1.058332 a 0.52916666,0.52916666 135 0 0 -0.529167,0.5291667 z"
       id="path5"
       inkscape:label="N (right side)"
       inkscape:path-effect="#path-effect5"
       inkscape:original-d="m 21.166666,4.233333 v 8.466666 h 2.116666 V 4.233333 Z" />
    <path
       style="font-variation-settings:normal;opacity:1;vector-effect:none;fill:url(#linearGradient56);fill-opacity:1;stroke-width:2.11671;stroke-linecap:butt;stroke-linejoin:miter;stroke-miterlimit:4;stroke-dasharray:none;stroke-dashoffset:0;stroke-opacity:1;-inkscape-stroke:none;stop-color:#000000;stop-opacity:1"
       d="M 20.637499,2.1166666 H 17.4625 a 0.52916666,0.52916666 135 0 0 -0.529167,0.5291667 v 9.5249987 a 0.52916666,0.52916666 45 0 0 0.529167,0.529167 h 1.058332 a 0.52916666,0.52916666 135 0 0 0.529167,-0.529167 V 4.7624997 A 0.52916666,0.52916666 135 0 1 19.579166,4.233333 h 1.058333 A 0.52916666,0.52916666 135 0 0 21.166666,3.7041663 V 2.6458333 A 0.52916666,0.52916666 45 0 0 20.637499,2.1166666 Z"
       id="path4"
       inkscape:label="N (left side)"
       inkscape:path-effect="#path-effect6"
       inkscape:original-d="M 21.166666,2.1166666 H 16.933333 V 12.699999 h 2.116666 V 4.233333 h 2.116667 z" />
    <path
       style="font-variation-settings:normal;opacity:1;vector-effect:none;fill:url(#linearGradient54);fill-opacity:1;stroke-width:2.11661;stroke-linecap:butt;stroke-linejoin:miter;stroke-miterlimit:4;stroke-dasharray:none;stroke-dashoffset:0;stroke-opacity:1;-inkscape-stroke:none;stop-color:#000000;stop-opacity:1"
       d="M 14.287499,2.1166666 H 8.995833 A 0.52916666,0.52916666 135 0 0 8.4666663,2.6458333 v 9.5249987 a 0.52916666,0.52916666 45 0 0 0.5291667,0.529167 h 5.291666 a 0.52916666,0.52916666 135 0 0 0.529167,-0.529167 V 11.1125 A 0.52916666,0.52916666 45 0 0 14.287499,10.583333 H 11.1125 A 0.52916666,0.52916666 45 0 1 10.583333,10.054166 V 4.7624997 A 0.52916666,0.52916666 135 0 1 11.1125,4.233333 h 3.174999 a 0.52916666,0.52916666 135 0 0 0.529167,-0.5291667 l 0,-1.058333 A 0.52916666,0.52916666 45 0 0 14.287499,2.1166666 Z"
       id="path3"
       inkscape:label="C (upper)"
       inkscape:path-effect="#path-effect3"
       inkscape:original-d="M 14.816666,2.1166666 H 8.4666663 V 12.699999 h 6.3499997 v -2.116666 h -4.233333 v -6.35 h 4.233333 z" />
    <rect
       style="fill:url(#linearGradient49);fill-opacity:1;stroke-width:2.11666;-inkscape-stroke:none"
       id="rect4"
       width="2.1166666"
       height="10.583333"
       x="4.2333331"
       y="2.1166666"
       rx="0.52916664"
       ry="0.52916664"
       inkscape:label="I" />
  </g>
  <metadata
     id="metadata74">
    <rdf:RDF>
      <cc:Work
         rdf:about="">
        <dc:title>icnscvt Logo</dc:title>
        <dc:creator>
          <cc:Agent>
            <dc:title>Lachesis</dc:title>
          </cc:Agent>
        </dc:creator>
        <dc:date>2025-07-04</dc:date>
      </cc:Work>
    </rdf:RDF>
  </metadata>
</svg>
